<mxfile host="app.diagrams.net" modified="2024-06-20T13:29:47.578Z" agent="Mozilla/5.0 (Macintosh; Intel Mac OS X 10_15_7) AppleWebKit/537.36 (KHTML, like Gecko) Chrome/115.0.0.0 Safari/537.36" version="24.5.5" etag="RwHxfVD9U6ofb7HSeyWR" type="github">
  <diagram name="Страница — 1" id="t3bvdH1yfT06oeOKktX0">
    <mxGraphModel>
      <root>
        <mxCell id="0" />
        <mxCell id="1" parent="0" />
      </root>
    </mxGraphModel>
  </diagram>
</mxfile>
